<?xml version="1.0" standalone="no"?>
<!DOCTYPE svg PUBLIC "-//W3C//DTD SVG 20010904//EN"
 "http://www.w3.org/TR/2001/REC-SVG-20010904/DTD/svg10.dtd">
<svg version="1.0" xmlns="http://www.w3.org/2000/svg"
 width="1254.000000pt" height="1254.000000pt" viewBox="0 0 1254.000000 1254.000000"
 preserveAspectRatio="xMidYMid meet">
<rect width="100%" height="100%" rx="15%" ry="15%" fill="#f3dec9" />

<metadata>
Created by potrace 1.16, written by Peter Selinger 2001-2019
</metadata>
<g transform="translate(0.000000,1254.000000) scale(0.100000,-0.100000)"
fill="#a0522d" stroke="none">
<path d="M5160 9402 c-106 -110 -135 -267 -79 -429 22 -66 56 -127 93 -165 53
-58 60 -26 16 78 -34 83 -54 198 -47 270 6 58 45 155 46 117 2 -44 51 -134
102 -188 107 -113 204 -154 384 -162 135 -6 204 7 437 86 151 51 244 66 366
58 154 -10 285 -62 447 -180 300 -219 440 -274 673 -265 l115 4 -39 -33 c-21
-18 -61 -47 -87 -65 -31 -20 -44 -34 -37 -38 18 -11 -11 -19 -32 -9 -9 5 -29
4 -46 -2 -17 -6 -52 -14 -78 -17 -26 -4 -49 -12 -51 -19 -5 -14 101 -90 184
-132 135 -67 298 -93 423 -67 41 9 79 16 83 16 5 0 5 -73 2 -162 -8 -186 -4
-176 -123 -299 -34 -37 -64 -75 -65 -86 -1 -14 -7 -18 -23 -15 -27 5 -134 -55
-134 -75 0 -31 205 -103 296 -103 24 0 44 -4 44 -10 0 -22 -149 -165 -259
-249 -146 -111 -256 -227 -299 -313 -40 -82 -65 -178 -60 -235 l3 -45 -57 5
c-34 3 -86 18 -128 37 -38 18 -70 34 -70 35 0 1 11 23 25 47 113 203 103 470
-23 602 -82 85 -213 111 -317 62 -47 -22 -155 -124 -155 -146 0 -6 9 -19 20
-30 34 -34 22 -52 -20 -30 -24 13 -33 -3 -53 -88 -8 -34 -29 -87 -48 -117
l-34 -56 -16 53 c-21 71 -56 138 -73 138 -22 0 -50 -38 -39 -52 17 -21 61
-150 68 -201 9 -60 26 -75 60 -53 26 17 95 113 95 132 0 7 10 18 23 27 17 11
27 34 40 88 10 41 17 83 17 94 1 57 109 157 188 174 129 27 227 -62 253 -230
26 -168 -60 -382 -179 -443 -26 -13 -51 -20 -116 -30 -70 -12 -52 -48 29 -60
52 -8 105 4 159 38 l40 24 47 -30 c67 -41 144 -66 225 -74 48 -4 90 -16 138
-40 38 -19 84 -34 102 -34 19 0 34 -2 34 -4 0 -2 -15 -29 -34 -59 -43 -73 -92
-221 -105 -322 -6 -44 -15 -152 -21 -240 -12 -176 -30 -282 -60 -341 -30 -57
-9 -67 38 -17 62 65 95 193 108 427 12 209 55 359 146 508 27 45 48 90 46 102
-3 19 -12 22 -88 27 -120 9 -154 26 -170 84 -18 64 -7 137 34 220 46 93 124
177 265 285 64 49 140 111 169 138 l52 49 0 -256 0 -256 -43 -27 c-91 -58
-207 -179 -207 -217 0 -35 93 12 209 107 l41 34 0 -191 0 -191 -38 0 c-48 0
-139 -45 -166 -82 -20 -28 -33 -119 -22 -161 3 -13 17 -41 32 -62 15 -22 22
-41 16 -43 -25 -8 -61 -44 -76 -76 -33 -70 -16 -166 41 -227 21 -23 22 -27 8
-39 -55 -46 -65 -150 -21 -224 15 -26 34 -50 41 -52 11 -4 10 -14 -6 -47 -25
-55 -24 -93 4 -147 29 -58 84 -100 149 -115 l53 -11 5 -145 c3 -79 9 -150 13
-156 11 -18 32 -16 51 3 13 13 16 43 16 175 0 91 4 159 9 159 5 0 20 15 33 33
17 24 23 46 24 91 1 58 1 58 38 71 114 39 152 168 75 251 -19 20 -19 21 2 40
52 47 63 119 28 191 -11 24 -32 51 -45 62 l-24 19 25 16 c56 37 73 131 37 203
-24 46 -101 120 -160 154 l-42 24 -1 555 c-1 305 -2 638 -4 740 -2 102 -6 433
-10 735 -7 569 -8 585 -47 570 -19 -8 -28 -120 -28 -355 l0 -167 -37 -12 c-21
-7 -79 -15 -128 -18 -105 -6 -231 20 -325 67 l-55 28 40 17 c140 62 165 77
225 141 69 74 100 128 83 145 -7 7 -28 5 -69 -8 -44 -13 -90 -17 -179 -17
-106 1 -131 5 -216 32 -99 33 -212 95 -314 173 -254 194 -414 260 -635 261
-132 0 -188 -11 -386 -78 -75 -25 -169 -52 -211 -60 -235 -45 -422 18 -521
174 -33 52 -48 98 -58 182 -3 30 -8 58 -11 63 -11 18 -40 3 -83 -41z m2870
-1698 l0 -97 -82 6 c-46 4 -93 9 -105 13 -22 6 -22 6 -2 23 11 9 21 26 22 38
0 12 4 20 8 17 4 -2 10 2 13 8 5 10 7 10 12 1 8 -17 49 5 94 50 19 20 36 36
38 36 1 1 2 -42 2 -95z m-10 -1445 c19 -12 74 -51 123 -87 64 -48 93 -77 108
-109 25 -52 19 -89 -17 -105 -57 -26 -207 30 -296 110 -75 68 -74 177 2 205
28 10 45 7 80 -14z m55 -373 c143 -67 172 -87 191 -132 18 -44 18 -50 -6 -74
-38 -38 -189 -22 -292 31 -116 59 -159 158 -97 220 29 29 62 22 204 -45z m-98
-276 c49 -22 154 -50 188 -50 14 0 40 -14 60 -31 45 -40 49 -89 9 -115 -72
-48 -271 -8 -342 69 -31 33 -39 89 -18 122 20 30 46 31 103 5z m84 -300 c19 0
49 -47 49 -76 0 -85 -164 -61 -198 28 -13 33 -13 40 2 62 l16 25 56 -20 c32
-10 65 -19 75 -19z"/>
<path d="M5256 8752 c-4 -3 -64 -5 -134 -4 -212 5 -363 -32 -565 -136 -186
-96 -355 -247 -497 -444 -87 -121 -82 -131 47 -93 48 14 167 41 263 61 96 20
187 42 202 50 52 27 68 10 18 -19 -50 -30 -149 -127 -195 -191 -49 -70 -92
-153 -135 -261 -81 -204 -160 -321 -276 -411 -131 -102 -122 -92 -101 -108 10
-7 55 -19 100 -25 45 -7 95 -14 110 -16 45 -7 211 14 271 35 60 20 136 65 136
80 0 13 -22 12 -100 -5 -36 -8 -130 -18 -210 -21 l-145 -7 53 48 c96 86 161
194 257 424 102 243 238 391 453 490 93 44 61 61 -112 61 -131 0 -267 -15
-389 -41 -54 -12 -100 -19 -103 -16 -2 2 43 49 100 105 118 114 222 187 340
242 170 79 260 100 483 108 187 8 205 13 185 56 -12 27 -45 49 -56 38z"/>
<path d="M5580 7616 c-94 -35 -223 -115 -334 -208 l-39 -32 18 34 c10 19 29
52 42 72 48 77 15 79 -61 4 -146 -146 -163 -322 -55 -567 16 -37 29 -70 29
-73 0 -2 -12 -6 -27 -8 -14 -2 -34 -14 -45 -28 -18 -25 -18 -27 3 -85 50 -142
52 -119 -29 -278 -46 -90 -73 -154 -72 -174 0 -59 70 -96 231 -123 91 -16 92
-17 91 -93 -2 -81 18 -111 86 -130 45 -13 47 -16 53 -55 7 -54 30 -78 100
-103 68 -25 77 -34 138 -136 51 -86 91 -119 157 -129 37 -5 55 -1 116 28 40
19 127 75 193 123 166 122 290 204 341 226 41 19 46 19 121 3 104 -21 243 -74
383 -145 200 -102 201 -102 233 -205 55 -173 149 -341 267 -476 103 -119 240
-229 240 -191 0 4 -41 60 -92 123 -104 132 -161 217 -231 345 -40 75 -97 199
-97 212 0 2 11 -4 25 -13 13 -8 29 -13 35 -9 79 49 -306 310 -600 408 -104 34
-237 60 -268 52 -45 -11 -210 -113 -372 -230 -178 -129 -225 -155 -275 -155
-54 0 -70 13 -110 88 -51 97 -82 129 -142 150 -68 24 -79 35 -87 82 -6 37 -11
43 -64 68 l-57 27 -6 65 c-4 36 -10 73 -14 83 -6 14 1 26 26 49 l33 31 -28 23
c-49 43 -150 26 -132 -22 5 -14 0 -15 -41 -10 -76 11 -153 36 -159 51 -3 8 17
54 44 102 58 101 87 170 111 265 l17 68 33 -85 c45 -114 117 -229 184 -293 51
-47 97 -67 97 -42 0 6 11 16 25 22 33 15 32 23 -5 38 -17 7 -53 37 -80 68 -70
78 -182 312 -195 406 -6 39 -22 56 -55 56 -25 0 -30 7 -60 83 -18 45 -40 122
-48 170 -14 76 -14 89 -1 102 8 8 84 68 168 134 138 108 256 183 302 193 10 2
38 -25 77 -74 142 -179 341 -296 483 -286 33 2 54 1 47 -3 -7 -4 -103 -43
-213 -87 -110 -44 -234 -95 -275 -113 -70 -30 -83 -32 -197 -33 -114 -1 -123
-2 -147 -25 -15 -14 -25 -30 -23 -35 2 -6 34 -11 73 -12 107 -1 114 -7 163
-124 23 -57 48 -127 56 -157 21 -81 29 -196 17 -232 -9 -25 -8 -31 4 -31 17 0
18 -14 3 -42 -15 -27 -4 -34 25 -15 72 48 75 223 7 422 -23 66 -44 127 -47
137 -4 12 6 22 42 38 27 11 56 28 66 36 9 9 32 17 50 18 37 3 763 298 788 321
21 20 54 84 47 91 -4 4 -68 -16 -144 -44 l-138 -50 -55 59 c-36 38 -63 59 -78
59 -33 0 -27 -20 23 -85 l46 -58 -32 -14 c-27 -11 -34 -11 -48 1 -9 8 -52 29
-96 46 -150 59 -287 151 -412 277 -79 79 -99 86 -173 59z"/>
<path d="M4520 7270 c-6 -11 -22 -73 -35 -137 -18 -84 -38 -144 -71 -214 -26
-55 -44 -104 -41 -113 14 -36 203 -10 346 48 155 63 391 266 309 266 -6 0 -43
-21 -82 -47 -101 -67 -230 -129 -326 -158 -101 -30 -125 -32 -115 -7 45 111
72 268 58 336 -10 46 -27 56 -43 26z"/>
<path d="M5424 7250 c-90 -28 -176 -119 -153 -162 18 -34 36 -31 93 16 72 58
146 81 230 72 108 -12 111 -12 111 4 0 8 -26 28 -58 44 -63 32 -166 43 -223
26z"/>
<path d="M5414 6845 c-23 -36 -14 -99 27 -181 41 -81 68 -103 94 -78 23 23 15
116 -14 176 -20 42 -72 108 -85 108 -3 0 -13 -11 -22 -25z"/>
<path d="M2564 4356 c-3 -7 -4 -35 -2 -62 l3 -49 308 0 c169 0 307 -2 307 -4
0 -2 -144 -151 -320 -331 -315 -323 -320 -328 -320 -369 l0 -41 55 0 56 0 151
158 c84 86 253 259 376 383 l223 226 -3 49 -3 49 -413 3 c-344 2 -413 0 -418
-12z"/>
<path d="M3834 4356 c-3 -7 -4 -35 -2 -62 l3 -49 400 0 400 0 0 60 0 60 -398
3 c-332 2 -398 0 -403 -12z"/>
<path d="M5174 4356 c-3 -7 -4 -35 -2 -62 l3 -49 319 -3 c350 -3 359 -4 396
-65 24 -38 25 -75 6 -122 -29 -69 -33 -69 -396 -75 l-325 -5 0 -235 0 -235 65
0 65 0 3 172 2 171 268 4 c253 3 270 4 317 26 105 48 150 118 150 232 0 126
-58 201 -181 240 -61 18 -92 20 -375 20 -254 0 -311 -2 -315 -14z"/>
<path d="M6476 4298 c-8 -93 -5 -774 4 -788 4 -7 33 -10 71 -8 l64 3 3 188 2
187 335 0 335 0 0 -190 0 -190 70 0 70 0 -2 433 -3 432 -65 0 -65 0 -3 -182
-2 -183 -335 0 -335 0 -2 183 -3 182 -66 3 -67 3 -6 -73z"/>
<path d="M7770 4359 c0 -6 53 -72 118 -147 65 -75 162 -189 215 -252 l97 -115
0 -160 c0 -88 4 -166 9 -173 5 -9 27 -12 72 -10 l64 3 3 168 2 169 168 196
c92 107 190 223 219 256 28 33 49 64 47 68 -3 5 -40 8 -82 8 l-77 -1 -174
-206 -175 -206 -25 30 c-14 17 -93 110 -174 207 l-149 176 -79 0 c-50 0 -79
-4 -79 -11z"/>
<path d="M9055 4347 c-4 -13 -5 -41 -3 -63 l3 -39 320 -5 c224 -3 326 -9 341
-17 54 -31 77 -132 42 -185 -35 -53 -65 -58 -335 -59 -136 -1 -275 -4 -308 -8
l-60 -6 0 -55 0 -55 200 -3 200 -4 155 -173 155 -174 83 -1 c45 0 82 4 82 9 0
5 -67 84 -150 175 l-150 165 38 6 c193 32 294 179 236 348 -18 54 -74 109
-143 141 -44 20 -64 21 -373 24 l-327 3 -6 -24z"/>
<path d="M3834 3987 c-2 -7 -3 -118 -2 -247 l3 -235 405 0 405 0 0 60 0 60
-337 3 -338 2 0 125 0 125 315 0 315 0 0 60 0 60 -380 0 c-299 0 -382 -3 -386
-13z"/>
<path d="M2887 3572 c-31 -31 -57 -61 -57 -65 0 -4 131 -7 290 -7 l291 0 -3
63 -3 62 -230 3 -230 2 -58 -58z"/>
</g>
</svg>
